<svg width="212" height="205" viewBox="0 0 212 205" fill="none" xmlns="http://www.w3.org/2000/svg">
<path d="M0 204.998C0.166544 204.999 0.333211 205 0.5 205C39.8191 205 72.3864 167.254 78.1083 118H133.892C139.614 167.254 172.181 205 211.5 205C211.576 205 211.652 205 211.728 205C211.818 204.999 211.909 204.999 212 204.998V175C188.055 175 168.041 150.593 163.145 118H170V88H163C167.633 54.9075 187.81 30 212 30V0.00203558C211.833 0.000679193 211.667 0 211.5 0C171.915 0 139.174 38.2575 133.779 88H78.2206C72.8262 38.2575 40.0848 0 0.5 0C0.333211 0 0.166544 0.000679193 0 0.00203558V30C24.1896 30 44.3671 54.9075 48.9998 88H39V118H48.8547C43.9592 150.593 23.9453 175 0 175V204.998Z" fill="#0B3765"/>
</svg>
